<?xml version="1.0" encoding="utf-8"?>
<!-- Generator: Adobe Illustrator 22.1.0, SVG Export Plug-In . SVG Version: 6.00 Build 0)  -->
<svg version="1.1" id="Layer_1" xmlns="http://www.w3.org/2000/svg" xmlns:xlink="http://www.w3.org/1999/xlink" x="0px" y="0px"
	 viewBox="0 0 512 512" style="enable-background:new 0 0 512 512;" xml:space="preserve">
<g>
	<path d="M286.4,185.7c-17.7,0-93.9,1.7-142.9,75.5v-75.5c0-46.5-37.8-84.4-84.4-84.4c-15.5,0-28.1,12.6-28.1,28.1
		s12.6,28.1,28.1,28.1c15.5,0,28.1,12.6,28.1,28.1v225c0,31,25.2,56.2,56.2,56.2h154.7c7.8,0,14.1-6.3,14.1-14.1v-14.1
		c0-15.5-12.6-28.1-28.1-28.1H256l112.5-84.4v126.6c0,7.8,6.3,14.1,14.1,14.1h28.1c7.8,0,14.1-6.3,14.1-14.1V271.7
		c-9,2.3-18.4,4-28.1,4C342.3,275.7,296.9,237,286.4,185.7z M424.8,101.3h-56.2l-56.2-56.2v118.1c0,46.6,37.8,84.4,84.4,84.4
		s84.4-37.8,84.4-84.4V45.1L424.8,101.3z M361.5,171.6c-7.8,0-14.1-6.3-14.1-14.1s6.3-14.1,14.1-14.1s14.1,6.3,14.1,14.1
		S369.2,171.6,361.5,171.6z M431.8,171.6c-7.8,0-14.1-6.3-14.1-14.1s6.3-14.1,14.1-14.1s14.1,6.3,14.1,14.1S439.6,171.6,431.8,171.6
		z"/>
</g>
</svg>
